<?xml version="1.0" encoding="utf-8"?>
<!-- Generator: Adobe Illustrator 23.1.1, SVG Export Plug-In . SVG Version: 6.00 Build 0)  -->
<svg version="1.1" id="Lag_1" xmlns="http://www.w3.org/2000/svg" xmlns:xlink="http://www.w3.org/1999/xlink" x="0px" y="0px"
	 viewBox="0 0 813 992" style="enable-background:new 0 0 813 992;" xml:space="preserve">
<style type="text/css">
	.st0{fill:#956969;}
	.st1{fill:#603813;}
	.st2{fill:#C89079;}
	.st3{fill:#CB957A;}
	.st4{fill:#603D20;}
	.st5{fill:none;}
	.st6{fill:#CE6968;}
	.st7{fill:#FBED21;}
	.st8{fill:#AC6D57;}
</style>
<g>
	<path class="st0" d="M29.9,516.1C12.3,424.3,28.7,334,88.3,240c58.1-91.2,159.5-186.2,277.4-221c118-36.8,217.8,2.8,272.2,93.9
		c56.3,90.4,67.2,232.4,49.9,384.1c-19,152.2-58.8,289-114.2,378.1c-55.4,89.6-126.3,131.6-208,106.3
		c-81.4-23.9-154-106.4-213-192.8C93.9,700,48.7,607.5,29.9,516.1z"/>
</g>
<g>
	<path d="M112.8,693c-0.1,0.3-0.3,0.7-0.4,1c-1.3,3.9-2.4,7.9-3.3,11.8l0,0c-0.7,3.7-1.4,7.5-2.3,11.1c-0.3,1.2-0.6,2.4-0.9,3.5
		c-1.2,6.2-2.4,12.5-3.6,18.7c0,0.3-0.1,0.5-0.1,0.8c-0.2,1.4-0.3,2.9-0.5,4.4c-1,12.2-1.1,24.5-1.9,36.7
		c-1.1,15.8-1.7,31.6-1.7,47.4L98,992h715V648.2c0-4-1.6-7.8-4.4-10.6c-0.4-0.4-0.8-0.8-1.2-1.1l-4-3.2c-0.3-0.2-0.5-0.4-0.8-0.6
		l-10.1-6.7l-17-10.8c-0.3-0.2-0.6-0.4-0.9-0.5L715,585l-46.2-25.5c-0.6-0.3-1.1-0.6-1.8-0.8l-61.9-20.9c-3.3-1.1-6.8-0.6-9.6,1.4
		l-25.9,18.4c-0.4,0.3-0.8,0.5-1.2,0.8l-57.6,30.2c-1.8,0.9-3.8,1.4-5.8,1.2l-70.9-5.5c-2.6-0.2-5.1-1.4-6.9-3.3l-20.3-21
		c-2.4-2.5-5.9-3.7-9.4-3.2l-82.7,13c-0.6,0.1-1.1,0.1-1.7,0.1h-75.7c-1,0-2,0.1-2.9,0.4l-10.9,3.1c-1.1,0.3-2.1,0.8-3,1.4l-7.1,4.7
		c-2.3,1.6-4.5,3.3-7.4,4c-0.3,0.1-0.6,0.3-0.9,0.4c-2.1,0.8-4.1,1.6-6.1,2.6c-0.8,0.4-1.7,0.9-2.6,1.2c-6.5,2.8-13.2,4.6-19.6,7.8
		c-12.5,6.4-25.9,14.4-33.8,26.3c-1,1.5-2.2,3-2.8,4.6s-0.3,0.7-1.4,4.4l0,0l0,0c-0.7,4.7-1.6,9.3-2.7,13.9l-0.1,0.5
		c-0.8,3.1-1.9,6.1-3.3,8.9l0,0c-1.9,3.8-4.1,7.4-6.7,10.9l-2.1,3l0,0c-1.9,2.4-3.5,5.1-4.7,7.9c-1.8,4-3.4,8.1-4.9,12.3"/>
	<path class="st1" d="M560,201"/>
	<path class="st2" d="M399.3,559.5l2.1,3.4c0.4,0.7,0.8,1.5,1.1,2.3l1.4,4.3c0.1,0.3,0.2,0.6,0.3,0.9l2.5,5.8c0.2,0.5,0.5,1,0.7,1.4
		l2.6,4.3l3,5l3.3,4.9c0.5,0.7,1,1.5,1.6,2.1l2.3,2.9c0.6,0.7,1.1,1.5,1.6,2.2l0,0c2.1,3.2,4.9,5.9,8.2,7.9l0,0l0,0
		c4,2.7,8.3,4.8,12.8,6.3l1.4,0.5c0.5,0.2,1.1,0.3,1.6,0.4l9.8,1.8c0.3,0,0.5,0.1,0.8,0.1l8.6,1l11,0.8c1.3,0.1,2.6,0.2,4,0.2h11h8
		c2.7,0,5.4-0.2,8-0.6l3.6-0.5c3.6-0.6,7.2-1.4,10.7-2.6l6.2-2.1c0.4-0.1,0.8-0.3,1.1-0.5l4.6-2.1c3.9-1.8,7.6-3.9,11.1-6.3
		l13.4-9.2c0.2-0.1,0.4-0.3,0.5-0.4l4.4-3.4c5.5-4.3,10.6-9.2,14.9-14.6l1.4-1.8l10-12l0,0c2.5-3.1,3.2-7.3,2-11.1l-7.8-23.3
		c-0.1-0.4-0.3-0.9-0.4-1.3l-13.5-63.9c-1.3-6.3-7.5-10.4-13.8-9.1l-12.9,2.6c-0.4,0.1-0.8,0.2-1.3,0.3l-153.5,48.7
		c-6.8,2.2-10.1,9.9-7.1,16.3l17.9,37.3C398.9,558.8,399.1,559.2,399.3,559.5z"/>
	<path class="st3" d="M616.7,317l-2-4.8c-1.1-2.7-3-5.1-5.3-6.8l-12-9c-0.3-0.2-0.6-0.5-0.9-0.7l-17.8-15.4c-2.5-2.1-4.2-5-5.1-8.1
		l-9.5-34.4c-0.1-0.5-0.3-1-0.5-1.5l-13.3-35c-0.3-0.8-0.7-1.6-1.1-2.4l-27-46.8c-1.5-2.6-3.8-4.8-6.4-6.3l-17.6-9.5
		c-1.6-0.8-3.2-1.4-5-1.7l-24.3-4.3c-0.7-0.1-1.5-0.2-2.2-0.2l-43.2-1.9c-1.1-0.1-2.2,0-3.3,0.2l-34.1,5.4c-1.5,0.2-2.9,0.7-4.2,1.3
		L355,147.2c-2.6,1.2-4.9,3.1-6.6,5.4L318.1,195c-1.4,2-2.3,4.2-2.8,6.6l-9.9,53.3c-0.3,1.4-0.3,2.9-0.2,4.3l3.8,47
		c0,0.5,0.1,1.1,0,1.6l-1,54.9c0,0.8,0,1.7,0.1,2.5l6.5,47.3c0.2,1.6,0.7,3.2,1.4,4.7l23.2,50c0.5,1.2,1.2,2.2,2,3.2l33,42.1
		c1.2,1.6,2.7,2.9,4.4,3.9L404,532l1.6,1c0.7,0.5,1.7,1.1,2.6,1.6c0.2,0.1,0.5,0.2,0.7,0.3s0.4,0.2,0.6,0.2l1.1,0.4
		c0.9,0.3,1.8,0.6,2.6,1l3.2,1.3c0.4,0.1,0.7,0.3,1.1,0.4c1.6,0.5,3.3,0.8,5,0.8h7.3c4.7,0,9.4-0.3,14.1-1l7-1
		c4.7-0.7,9.2-1.8,13.7-3.4c2.9-1,5.7-2.3,8.5-3.6l3.9-1.9l5.2-2.4c6.5-3,12.8-6.6,18.8-10.6l11-8l3.1-2.5
		c4.6-3.7,9.1-7.5,13.5-11.5l4.5-4l1.1-0.9c8.6-7.4,16.3-15.7,23-24.8c0.6-0.9,1.2-1.8,1.7-2.7c0.1-0.2,0.2-0.5,0.3-0.7
		c0.1-0.1,0.1-0.3,0.2-0.4l12.3-30.3c0.3-0.8,0.7-1.5,1.1-2.2l8.1-13.8l2.5-4.3c0.2-0.3,0.4-0.6,0.6-0.9c1-1.5,2.4-2.9,3.9-4l2-1.4
		l5.3-3.8l7.7-5.6c2.8-2,4.9-4.9,6-8.1l5.9-17.6c0.3-0.9,0.5-1.8,0.7-2.8l2.6-17.4c0.1-0.8,0.2-1.6,0.2-2.5v-21.5
		C618,321.1,617.6,319,616.7,317z M578.3,397.1c-0.8-0.4-1.6-0.9-2.3-1.4V395l1.3,1.3l1.7,0.7v0.4
		C578.8,397.4,578.5,397.3,578.3,397.1z"/>
	<path class="st4" d="M276.9,207.8l-1.7,10c-0.1,0.8-0.2,1.6-0.2,2.4"/>
	<path class="st4" d="M563.1,129.2c-0.1-0.1-0.1-0.4-0.2-0.5l-1-2.9c-0.9-2.7-2.2-5.3-3.7-7.7l0,0c-0.5-0.6-1-1.2-1.3-1.9
		c-5-7.4-10.6-14.3-18.5-18.5c-0.4-0.2-0.7-0.4-1-0.6l-2.1-1.2c-0.9-0.6-1.9-1.2-2.8-1.8l-4.9-3.5c-0.5-0.3-0.9-0.7-1.2-1.1
		l-5.1-5.9c-0.3-0.3-0.5-0.6-0.8-0.8l-5.9-5.1c-0.4-0.4-0.9-0.7-1.4-0.9L496,68l-8-3.5c-0.7-0.3-1.4-0.5-2.2-0.7l-9.2-1.7
		c-0.5-0.1-3.2-1-3.7-1.1l-7.2-2.4c-1.2-0.4-2.5-0.6-3.7-0.6h-13c-1.2,0-5.6,0.2-6.8,0.5l-8.5,2.3c-0.5,0.1-0.9,0.2-1.4,0.3
		l-26.9,4.5c-1.6,0.3-3.1,0.8-4.6,1.6l-10.5,5.6c-0.2,0.1-0.5,0.3-0.7,0.5l-11.1,8.3c-0.4,0.3-0.8,0.6-1.1,1L366,94l-12,13
		l-13.2,13.2c-0.2,0.2-0.5,0.4-0.8,0.6c-3.3,3-7.3,4.9-11.2,7c-1.4,0.8-2.7,1.6-4,2.6c-1,0.8-2,1.7-2.9,2.6l-2.3,2.3
		c-0.8,0.9-1.6,1.9-2.4,2.8c0,0,0,0,0,0.1c-0.6,0.7-1.2,1.4-1.7,2.2l0,0c-0.2,0.3-0.4,0.6-0.7,0.8l-8.5,7.8
		c-0.6,0.6-1.2,1.1-1.7,1.8c-1.3,1.6-2.7,3.1-4,4.7c-0.8,0.9-1.4,1.9-2,2.9c-0.5,0.9-1.1,1.8-1.7,2.7c-0.1,0.2-0.2,0.4-0.4,0.6
		l-0.4,0.5c0,0,0,0-0.1,0.1l-8.5,10.3c-0.2,0.2-0.4,0.5-0.5,0.7l-3.3,5.8c-0.3,0.6-0.6,1.2-0.9,1.8l-3,7.4l-0.8,2.2l0,0
		c0,0.1-0.1,0.2-0.1,0.3l-1.4,7.1c-0.1,0.9-0.3,1.8-0.4,2.6c0,0.1,0,0.3,0,0.3l-3.9,31.7c-1.7,12-3.7,23.9-5.4,35.8v0.3
		c-0.5,3.3-0.7,6.6-0.7,9.9v10.2c0,0.2,0,0.5-0.1,0.7l-1,7.6c-0.2,0.5-0.3,1.1-0.4,1.6c-0.8,4.2-2.2,8.4-3.2,12.5l-0.3,1.4
		c-0.1,0.3-0.1,0.6-0.1,0.9l-0.9,12c0,0.4,0,0.7,0,1.1v26.8c0,0.4,0,0.8-0.1,1.2l-1.8,15.7c-0.1,0.5-0.1,1-0.2,1.5l-5.7,26.6
		c-0.1,0.5-0.2,0.9-0.4,1.4l-11.3,36.9c-0.3,1-0.5,2-0.6,3l-1.7,14.5c-0.1,0.7-0.1,1.4-0.1,2.1v12.5c0,1.7,0.2,3.3,0.6,5l2.2,9.5
		c0.2,0.7,0.4,1.4,0.6,2.1l8.5,22.5c0.1,0.3,0.2,0.6,0.3,0.8l6.3,13.6c0.3,0.7,0.5,1.3,0.6,2.1l1.6,11.1c0.2,1.2,0.2,2.4,0,3.6
		l-1.5,9.8c-0.1,0.9-0.5,1.9-0.9,2.7l-3.3,6c-0.6,1.1-1.5,2.1-2.6,2.9L247,563l-4.5,2.7c-0.4,0.2-0.7,0.4-1.1,0.5l-7,2.6
		c-0.3,0.1-0.6,0.2-0.8,0.3L224,573c-1.1,0.6-2.6,0.9-2,1l5.5,0.9c0.2,0,0.6,0.1,0.8,0.2l9,1.6c1.1,0.2,2.3,0.3,3.4,0.3h3.5
		c0.5,0,1.1,0,1.6-0.1l18.7-1.9c0.4,0,0.7,0,1,0h4.4c1.4,0,2.8-0.2,4.1-0.6l4.7-1.3c0.2,0,0.4,0,0.5,0.2l5.1,7.6
		c0.5,0.7,0.9,1.5,1.2,2.3l2.7,6.7c0.5,1.4,0.9,2.8,1,4.3l0.8,12.3c0,0.3,0,0.6,0,0.9v20.3c0,1.5-0.2,3.1-0.5,4.6L286,649l-2.8,12.1
		c-0.1,0.6-1,2.3-1.2,2.9l-4,10l1-0.3c1.9-0.5,3.8-1.4,5.3-2.7l2.6-2c0.6-0.5,2.3-1.6,3-2l3.3-2c1.1-0.7,2.2-1.4,3.3-2.2l7.5-6
		c0.6-0.5,1.3-0.9,1.9-1.3l6-3.4c1.3-0.7,4.1-2.9,5.7-4.1c0.8-0.6,1.6-1.3,2.3-2.1l10.6-11.3c0.3-0.3,0.6-0.6,0.9-0.9L343,623
		c1.3-1.2,2.5-2.6,3.4-4.2l4.9-8.4c0.5-0.8,1-1.6,1.6-2.3l1-1.3c1.9-2.5,4.3-4.6,7-6.1c0.5-0.3,0.9-0.5,1.1-0.6l7.3-2.7
		c0.5-0.2,1-0.4,1.4-0.6l6.4-3.2c0.6-0.3,1.2-0.7,1.7-1.1l3.2-2.4l7.3-5.7c1.1-0.8,1.9-2,2.3-3.3l2.3-7l1.8-6.3
		c0.1-0.5,0.4-0.9,0.8-1.2l3.8-3.2c1.1-0.9,2-1.9,2.8-3.1l0.3-0.5c1.7-2.5,2.9-5.2,3.7-8.1c0.5-1.8,0.9-3.6,1.2-5.4l0.3-2
		c0.2-1.5,0.3-3,0.3-4.6V536h-0.1l-1.9-1.2c-2-1.2-3.9-2.5-5.7-4l-5-4c-1.5-1.2-3-2.5-4.4-3.9c-1.3-1.3-2.5-2.6-3.7-4L385,515
		l-0.8-1c-2.1-2.6-4-5.4-5.8-8.3l-4.2-7.1c-1.4-2.4-2.8-4.8-4-7.3l-7.9-15.9c-0.1-0.3-0.3-0.5-0.4-0.8c-1.8-3.1-3.4-6.3-4.8-9.6
		l-1.9-4.5c-0.7-1.6-1.5-3.3-2.3-4.9l-3.7-7.4c-0.7-1.5-1.4-2.9-2.1-4.4l-0.8-1.8c-0.9-2-1.6-4-2.2-6.1c-0.7-2.6-1.7-5.1-2.9-7.5
		c-0.8-1.6-1.7-3.1-2.7-4.6L336,420c0,0,0,0,0-0.1c-1.3-2.6-2.5-5.4-3.4-8.2l-2.3-6.9c-0.9-2.6-1.6-5.2-2.3-7.9l0,0l-2.5-7.5
		c-0.3-1-0.5-2-0.6-3l-0.4-4.7L324,375l-1-15l-1-16l-0.9-18.9c0-1-0.1-2.1-0.2-3.1s-0.2-2.1-0.4-3.1l-0.3-2.4L320,315l0,0l-1-5l-1-6
		l-0.2-1.4c-0.4-2.9-0.7-5.8-0.8-8.8c0-0.8,0-1.7,0-2.6V290c0-1.4,0-2.8-0.1-4.1l-0.7-11.9c-0.1-1.4-0.1-2.8-0.1-4.2v-9.5
		c0-4.2,0.3-8.5,1-12.6l1-6.7l0.9-4.5c0.7-3.7,1.6-7.3,2.8-10.8l1.6-5.3c0.5-1.6,0.9-3.2,1.3-4.8L328,201l0.3-1.3
		c0.9-3.5,2-7,3.4-10.4s3-6.6,4.8-9.8c1-1.7,2.1-3.3,3.2-4.8l0.4-0.5c3.2-4.1,6.9-7.9,11-11.2c3.2-2.7,6.8-5,10.5-7
		c6.3-3.3,12.9-5.8,19.8-7.5l1.7-0.4c3.2-0.8,6.5-1.2,9.9-1.5l6.4-0.4c2.4-0.2,4.8-0.5,7.2-1l10.6-2.2c3.2-0.7,6.4-1.6,9.5-2.7
		l5.9-2.1c2-0.7,3.7-2,5-3.7c0.2-0.3,0.6-0.3,0.8-0.1c2.2,1.8,4.3,3.7,7,4.9c3.7,1.6,7.6,2.9,11.6,3.9c4.7,1.2,9.5,1.8,14.3,1.8h5.7
		c4,0,8.1,0.2,12.1,0.8c3.3,0.4,6.5,1.2,9.5,2.4c3.1,1.2,6,2.7,8.7,4.6c3.1,2.2,5.9,4.8,8.1,7.9c3.1,4.2,5.8,8.7,8.3,13.3l2.7,5.1
		c3.1,6,5.8,12.1,8.1,18.4l0.3,0.7c0.9,2.5,1.9,5,2.9,7.4l3.4,7.8c1.3,3,2.5,6.1,3.7,9.2v0.2c2.2,6.1,4,12.4,5.3,18.7
		c0.6,3,1.7,5.8,3,8.6c2.6,5.3,4.8,10.8,6.4,16.4l3,10.4L566,288l2,6l4,13l3.7,10.1c0.2,0.4,0.7,0.5,1,0.2l3.2-3.2
		c2.8-2.8,6-5.1,9.4-6.8c1.8-0.9,3.8-1.4,5.8-1.4c2.6,0,5.1,0.7,7.4,2c2.4,1.3,4.4,3.2,6,5.4c1.7,2.4,3,5.1,3.7,8
		c0.6,2.4,1,4.9,1.2,7.4l0.2,3.3c0.3,4.6,0.3,9.2-0.1,13.8l-0.2,2.2c-0.2,2-0.4,3.9-0.6,5.8l-0.8,5.4c-0.5,3.8-1.3,7.5-2.2,11.2
		c-1.1,4.2-2.9,8.3-5.4,11.9l-3.5,5.1c-1.1,1.7-2.3,3.3-3.6,4.8c-0.6,0.8-1.4,1.5-2.2,2.1c-1,0.7-2,1.3-3.1,1.7
		c-0.6,0.2-1.2,0.4-1.8,0.6c-2.6,0.9-5.3,1.5-8.1,1.9c-0.3,0-0.6,0.1-0.9,0.1c-0.7,0-1.4-0.1-2-0.3c-0.2-0.1-0.5-0.2-0.7-0.3
		c-0.8-0.4-1.6-0.9-2.3-1.4c-0.6-0.5-1.2-1-1.8-1.5L573,394l-1,10l0,0l-4,23l-3,14l0,0l-4,14l-2,5.8v0.2l0.8,9.3
		c0.1,1.5,0.2,3.9,0.2,5.4V489c0,0.3,0,3,0.2,3.3l3.6,21.8c0.1,0.8,0.2,1.1,0.4,1.6l1.7,5.2l3,8l2,4.6c0.5,1.3,1.5,2.6,2.1,3.7
		c0.5,0.8,1,1.5,1.5,2.2l0.4,0.5l0.1,0.1c1.7,1.7,4.9,3.9,5.5,4.3c1.1,0.8,2.4,1.6,3.2,2.8l2.2,2.5c1.3,1.5,2.4,3,3.4,4.7l1.5,2.7
		c0.7,1.2,1.3,2.4,1.7,3.7l2.8,7.8c0.3,0.9,0.6,1.8,0.8,2.6l1,3.9c0.5,1.9,0.7,3.8,0.7,5.7v3.8c0,3.5-0.6,7-1.7,10.2l-0.3,1l1-0.3
		c3.2-1.1,6-3.3,7.6-6.3l0.9-1.6c1-1.8,1.8-3.7,2.4-5.7l0.1-0.2c1.4-4.5,2.2-9.1,2.5-13.8l0.4-6.1c0-0.4,0.5-0.7,0.8-0.5l15.6,8.3
		c0.4,0.2,0.8,0.4,1.3,0.6l14.2,6.2c0.7,0.3,1.5,0.6,2.3,0.9l14.9,5.2c0.6,0.2,1.3,0.4,2,0.6l21,5.7l26,6l18,4l15,4
		c2.7,0.7,5.3,1.5,7.8,2.5l5.2,2c2.7,1,5.3,2.2,7.8,3.5l2,1c4.1,2.1,8.1,4.4,11.9,7.1l1.8,1.3c3.6,2.5,7.5,4.7,11.6,6.4l7.9,3.4
		l-26-19l-10.2-8.3c-3.9-3.2-7.9-6.1-12.1-8.8l-9.9-6.5c-2.5-1.6-5.1-3.1-7.7-4.5l-13-6.9l-12.3-6.9c-2.5-1.4-4.9-2.8-7.3-4.4
		l-6.2-4c-0.8-0.5-1.6-1-2.3-1.6l-6.8-5c0,0-3.5-2.5-5.5-3.9c-1-0.7-2-1.5-2.9-2.3l-0.4-0.3c-3.6-3.1-6.6-6.8-8.9-10.9
		c-0.2-0.4-0.4-0.8-0.6-1.2L660,524l-5-11l-2.6-5.2c-1.6-3.2-2.8-6.6-3.6-10.1L648,494l-2-10l-1.7-9.2c-0.2-1.2-0.5-2.5-0.9-3.7
		c-1-3.4-1.5-7-1.5-10.6v-7.3c0-2.9,0.2-5.8,0.7-8.6l0.2-1c0.1-0.5,0.2-1,0.2-1.5l0.6-5.6c0.2-1.8,0.3-3.6,0.3-5.4v-10
		c0-1.8,0.1-3.6,0.2-5.4l0,0c-0.1-4.3-0.3-8.5-0.8-12.8c-1.1-9.4-2.7-18.7-3.9-28c-1.3-9.6-2.2-19.1-2.4-28.9c0-0.6,0-1.1-0.1-1.7
		c-0.1-1.1-0.2-2.2-0.4-3.3v-0.2c-0.5-1.8-1-4.7-1.2-6.6l-0.1-0.5c0,0,0,0,0-0.1c-0.1-0.4-0.2-0.8-0.3-1.2c-0.1-0.2-0.1-0.4-0.2-0.6
		c-0.3-1.2-0.9-3.2-1.2-4.4c-0.4-1.1-0.7-2.2-0.9-3.4l-0.2-1.4c0,0,0,0,0-0.1c-1.4-4.8-2.4-9.6-3.6-14.4c-0.9-3.4-1.7-5.8-2.7-9.1
		c0-0.1-0.1-0.2-0.1-0.3c-0.2-0.4-0.5-1.4-0.7-1.6c-0.6-1.6-1-2.5-1.1-3.1c-0.2-0.6-0.2-0.8-0.2-1.2v-1c0-1-0.8-2.5-1.2-3.8
		c-0.1-0.5-0.3-1-0.5-1.4l-1.7-4.4c-0.3-0.7-0.5-1.4-0.7-2.2v-0.1c-0.6-1.6-1.2-3.1-1.7-4.7l0,0c-0.9-1.9-1.6-5.7-2.1-7.3
		c-3.4-9.8-4.8-18.1-7.6-28.1c-0.1-0.4-0.2-0.7-0.2-1c-0.1-1.2-0.3-2.4-0.7-3.6c-2.8-8.1-4.7-16.6-7.1-24.8c-1.3-4.5-2.3-9-3.5-13.5
		l-1-2.9l-0.3-1.1c0-0.1,0-0.1-0.1-0.2c-1.1-3.5-2.2-7-2.9-10.5c-0.4-1.9-1-3.7-1.8-5.4l0,0c-1.1-1.7-2.9-4.3-4-6
		c-5.7-6.1-10.9-12.6-14.9-19.7"/>
	<polyline class="st5" points="566,287 563,278 562.4,275.9 	"/>
	<path class="st4" d="M369.9,283.6l-3.7-4.4c-0.1-0.1-0.2-0.3-0.4-0.4l-4.1-4.1c-1.2-1.2-2.3-2.4-3.3-3.7l0,0
		c-1.6-1.9-3.9-3.1-6.4-3.1h-2.8c-0.8,0-1.7,0-2.5,0.1l-7.7,1l-5.5,0.7c-1.6,0.2-3.2,0.7-4.6,1.5l-3.4,1.9c-1,0.5-1.8,1.2-2.6,2
		l-3.3,3.3c-1,1-1.7,2.2-2,3.6l-0.4,1.6c-0.2,0.8-0.3,1.7-0.2,2.6l0.1,1.7l6.6-1.5c1.6-0.4,3.2-0.8,4.7-1.4l0.4-0.2
		c1.5-0.6,3.1-1,4.8-1.3l2-0.3c1.7-0.2,3.4-0.2,5.1,0.1l0,0c2.3,0.4,4.6,0.6,7,0.6h0.5c2.6,0,5.3,0.5,7.7,1.5l0,0
		c0.9,0.3,1.7,0.6,2.6,0.7l4.6,0.8l4,0.8c0.6,0.1,1.3-0.1,1.8-0.5l1-1C370.5,285.5,370.5,284.4,369.9,283.6z"/>
	<path class="st4" d="M426,271.2V270c0-1.3,0.3-2.5,0.8-3.7l3.1-6.9c0.1-0.2,0.2-0.4,0.3-0.6l3.4-4c0.9-1.1,2.2-2,3.5-2.4l3.8-1.3
		c0.1,0,0.1,0,0.2-0.1l5.3-1.3c1.7-0.4,3.4-1,5-1.6l2.4-1c0.1,0,0.2-0.1,0.3-0.1l6.8-1.9c2.7-0.7,5.5-1.1,8.3-1.1h7.8h11.5
		c1,0,2,0.1,2.9,0.3l6.6,1.5c0.6,0.1,1.2,0.3,1.8,0.5l3,1.2c0.7,0.3,1.4,0.7,2.1,1.1l5,3.3l6.7,4.2c0.8,0.5,1.6,1.2,2.3,1.9l3.8,3.8
		c0.1,0.1,0.2,0.2,0.3,0.4l0,0c0.9,1.4,0.2,3.2-1.4,3.6l-0.3,0.1c-0.3,0.1-0.5,0.1-0.8,0.1l-6.9-0.7c-1.8-0.2-3.5-0.6-5.2-1.3
		l-4.1-1.8c-0.3-0.1-0.5-0.2-0.8-0.3l-6.5-1.6c-0.8-0.2-1.5-0.3-2.3-0.3H489h-10h-5.9c-1.4,0-2.8,0.2-4.2,0.7l-3.7,1.2
		c-0.2,0.1-0.4,0.2-0.6,0.3l0,0c-1.8,1.2-3.8,2.1-5.9,2.6l-1.6,0.4c-2.2,0.5-4.3,1.2-6.3,2.1L447,269l-7,3l-6.4,2.7
		c-0.4,0.2-0.8,0.3-1.3,0.3h-2.5C427.7,275,426,273.3,426,271.2z"/>
	<path class="st5" d="M299,311h-6l3-4l6-6l5.9-4l6.1-3l3-1.1c0.1,2.9,0.4,5.9,0.8,8.8l0.2,1.4l1,6l1,5l0,0l0.2,1.4L311,314l-8-1
		L299,311z"/>
	<path class="st5" d="M324.5,380.8L313,375l-6-7l-7-9l-4-8l-2-6l-2-7l-1-6l-1-9v-2l1-5v1.9l7,0.1l6,1l7,1l8,1h1.9
		c0.1,1,0.2,2.1,0.2,3.1L322,343l1,16l1,15L324.5,380.8z"/>
	<polygon class="st5" points="527,306 527,322 526,327 524,333 521,341 516,349 511,355 506,360 500,364 491,368 483,370 474,371 
		465,370 457,369 450,365 442,359 435,351 432,346 427,338 424,331 422,322 421,314 422,306 428,290 433,285 439,280 448,276 
		455,273 461,271 468,270 476,269 485,269 494,270 502,272 510,275 515,279 519,283 522,289 525,297 	"/>
	<path class="st3" d="M326.6,381.8c1.8,0.8,3.8,1.5,5.8,1.9l-2.8-0.6c-0.4-0.1-0.8-0.2-1.2-0.4l-1.6-0.8
		C326.8,381.9,326.7,381.8,326.6,381.8z"/>
	<path class="st3" d="M333.1,383.8c0.6,0.1,1.1,0.2,1.7,0.3l-0.6-0.1c-0.1,0-0.3,0-0.4-0.1L333.1,383.8z"/>
	<path class="st3" d="M347.4,384.5l-2.8,0.4c-0.4,0-0.8,0.1-1.1,0l-2.9-0.3C342.8,384.9,345.1,384.8,347.4,384.5z"/>
	<path class="st3" d="M347.8,384.5c2.1-0.3,4.2-0.9,6.1-1.9l-2.2,1.1c-0.5,0.2-0.9,0.4-1.4,0.5L347.8,384.5z"/>
	<path class="st3" d="M354.4,291.2l1.3,0.5c-1.1-0.5-2.3-0.8-3.5-1.1l1.3,0.3C353.9,291,354.1,291,354.4,291.2z"/>
	<path class="st3" d="M361.1,294.6c-1.5-1.1-3-2-4.7-2.6l2,0.8c0.4,0.2,0.7,0.4,1.1,0.6L361.1,294.6z"/>
	<path class="st3" d="M356.1,381.4c1.9-1,3.7-2.2,5.3-3.5l-2,1.7c-0.3,0.2-0.6,0.5-0.9,0.6L356.1,381.4z"/>
	<path class="st3" d="M367.5,371.9l-1.2,1.6c-0.2,0.3-0.5,0.6-0.8,0.8l-1.5,1.3C365.3,374.6,366.5,373.3,367.5,371.9z"/>
	<path class="st3" d="M369.5,300.7l1.7,2.5c-1.5-2.1-3.3-3.9-5.5-5.3l2.5,1.7C368.8,299.8,369.2,300.2,369.5,300.7z"/>
	<path class="st3" d="M373.3,363.7c1.8-2.5,3.1-5.1,4.1-8l-1.2,3.6c-0.1,0.4-0.4,0.9-0.6,1.2L373.3,363.7z"/>
	<path class="st3" d="M377.5,355.4c0.3-1,0.6-2,0.8-3.1l-0.3,1.4c0,0.2-0.1,0.3-0.1,0.5L377.5,355.4z"/>
	<path class="st3" d="M378.2,314.7l0.5,2.2c-0.5-2-1.2-3.9-2.2-5.7l1.2,2.2C377.9,313.8,378,314.2,378.2,314.7z"/>
	<path class="st3" d="M380.2,324.4c-0.1-1-0.3-2-0.5-2.9l0.3,1.2c0,0.2,0.1,0.4,0.1,0.5L380.2,324.4z"/>
	<path class="st3" d="M380.2,343.1l0.4-4.9l-0.5,6.4c0,0.2-0.1,0.4-0.1,0.6l-0.3,1.2C379.9,345.4,380.1,344.3,380.2,343.1z"/>
	<path class="st3" d="M381,332.6c0,0.3,0,0.6,0,0.8l-0.2,3.1c0.2-2.4,0.2-4.7-0.1-7.1L381,332.6z"/>
	<path class="st5" d="M320.2,315.4L311,314l-8-1l-4-2h-6l3-4l6-6l5.9-4l6.1-3l3-1.1c0.1,2.9,0.4,5.9,0.8,8.8l0.2,1.4l1,6l1,5l0,0
		L320.2,315.4z"/>
	<path class="st5" d="M324.5,380.8L313,375l-6-7l-7-9l-4-8l-2-6l-2-7l-1-6l-1-9v-2l1-5v1.9l7,0.1l6,1l7,1l8,1h1.9
		c0.1,1,0.2,2.1,0.2,3.1L322,343l1,16l1,15L324.5,380.8z"/>
	<polygon class="st5" points="527,306 527,322 526,327 524,333 521,341 516,349 511,355 506,360 500,364 491,368 483,370 474,371 
		465,370 457,369 450,365 442,359 435,351 432,346 427,338 424,331 422,322 421,314 422,306 428,290 433,285 439,280 448,276 
		455,273 461,271 468,270 476,269 485,269 494,270 502,272 510,275 515,279 519,283 522,289 525,297 	"/>
	<path class="st5" d="M532,297"/>
	<path class="st6" d="M468.7,440.5l-3.3,3.8c-1.6,1.8-3.2,3.5-4.9,5.2l-3.2,3.2c-2.2,2.2-4.5,4.1-7,5.9l0,0c-4.1,2.9-8.6,5.2-13.4,7
		L433,467l-6.5,2.4c-3,1.1-6.1,1.9-9.2,2.4l-1,0.2c-4.1,0.7-8.4,0.7-12.5-0.1l-1.6-0.3c-2.1-0.4-4.1-1.1-6-2l-1.4-0.7
		c-1.2-0.6-2.3-1.3-3.4-2l-3.8-2.5c-0.4-0.3-0.7-0.5-1.1-0.8l-3.5-2.8c-0.6-0.5-1.2-1-1.8-1.6l-2.3-2.3c-0.5-0.5-1-1.1-1.5-1.7
		l-0.9-1.2c-0.9-1.2-1.4-2.6-1.4-4.1v-0.1c0-0.4,0.2-0.7,0.5-0.9l0.9-0.5c2.4-1.4,4.6-3.2,6.6-5.2l0,0l2.6-2.6
		c0.9-0.9,2-1.8,3.1-2.5l1.9-1.3c1.6-1.1,3.4-1.6,5.3-1.6h0.4c1.1,0,2.2,0.3,3.3,0.8l2.5,1.2l3,1.5c0.7,0.3,1.4,0.5,2.2,0.5l0,0
		c0.5,0,1.1-0.1,1.6-0.4l2.8-1.4c0.3-0.2,0.6-0.3,0.9-0.4l4.5-1.8l1.8-0.7c2.1-0.9,4.4-1.3,6.7-1.3h0.4c1.4,0,2.7,0.2,4.1,0.4l7,1.6
		l0,0c3.3,0.7,6.7,1,10.1,1h0.9h6h7h1.6c2.2,0,4.4,0.3,6.6,0.8l0.7,0.2l0,0C470,438.3,469.5,439.5,468.7,440.5z"/>
	<path class="st3" d="M579,397v0.4c-0.2-0.1-0.5-0.2-0.7-0.3c-0.8-0.4-1.6-0.9-2.3-1.4V395l1.3,1.3L579,397z"/>
	<path class="st7" d="M595,395.4v3.8c0,0.2,0,0.3,0,0.5c0,1-0.1,2-0.3,3l-0.2,1.2c-0.3,1.4-0.7,2.7-1.3,3.9l-0.5,0.9
		c-0.4,0.8-0.9,1.5-1.5,2.1l-0.5,0.5c-0.7,0.7-1.5,1.3-2.3,1.9c-0.7,0.3-1.5,0.6-2.2,0.9l-1.1,0.3c-0.9,0.2-1.9,0.3-2.8,0.1
		c-0.5-0.1-0.9-0.2-1.3-0.4c-0.6-0.3-1.1-0.8-1.5-1.4l0,0c-0.8-1.2-1.4-2.6-1.8-4L577,407l-0.5-2c-0.3-1.3-0.5-2.7-0.5-4.1v-4.2
		c0.7,0.5,1.5,1,2.3,1.4c0.2,0.1,0.5,0.2,0.7,0.3v2c0,0.4,0,0.7,0.1,1.1l0.8,3.4c0,0.1,0,0.1,0.1,0.2l0.6,1.9
		c0.2,0.6,0.7,1.2,1.3,1.5l0,0c0.7,0.3,1.4,0.5,2.2,0.5l0,0c1.2,0,2.3-0.5,3.1-1.3l0.5-0.5c0.1-0.1,0.2-0.3,0.3-0.4l1.2-2.4
		c0.3-0.5,0.5-1.1,0.6-1.7l0,0c0.1-0.5,0.1-0.9,0.1-1.4v-5.6c0-1.1-0.1-2.3-0.4-3.4l0,0c-0.4-1.5-1-3-1.9-4.3l-0.1-0.1
		c-0.4-0.6-0.6-1.3-0.6-2v-2.8c0-0.6,0.5-1.1,1.1-1.1l0,0c0.6,0,1.2,0.1,1.7,0.4l0.3,0.2c0.5,0.3,1,0.7,1.3,1.3l1.6,3.1l0.5,0.9
		c0.4,0.7,0.6,1.5,0.8,2.3l0.5,2.4c0.1,0.6,0.2,1.2,0.2,1.8C595,394.8,595,395.1,595,395.4z"/>
	<path class="st3" d="M380.7,336.5v0.1l-0.1,1.7l-0.4,4.9c-0.1,1.2-0.3,2.3-0.5,3.4c0,0.1,0,0.2-0.1,0.2l-1.2,5.5
		c-0.2,1-0.5,2.1-0.8,3.1c0,0.1-0.1,0.1-0.1,0.2v0.1c-1,2.8-2.3,5.5-4.1,8c0,0,0,0,0.1-0.2l-5.8,8.2c-1.1,1.6-2.3,2.9-3.6,4
		l-2.6,2.2l0,0c-1.6,1.4-3.4,2.6-5.3,3.5l-2.2,1.1c-1.9,1-4,1.6-6.1,1.9l-0.3,0.1c0,0,0,0-0.1,0c-2.3,0.3-4.5,0.4-6.8,0.1l0,0
		l-5.6-0.6H335c-0.6-0.1-1.1-0.1-1.7-0.3l-0.6-0.1h-0.1c-2-0.4-3.9-1-5.8-1.9l0,0c-1.3-0.8-2.2-2.1-2.3-3.7l-0.5-4l-1-15l-1-16
		l-0.9-18.9c0-1-0.1-2.1-0.2-3.1s-0.2-2.1-0.4-3.1l-0.3-2.4L320,314l0,0l-1-5l-1-6l-0.2-1.4c-0.2-1.8-0.5-3.5-0.6-5.3
		c-0.2-2,1-3.9,2.9-4.6l0,0c0.2-0.1,0.5-0.2,0.7-0.2c0.2-0.1,0.5-0.2,0.7-0.2c0.2-0.1,0.5-0.1,0.7-0.2s0.5-0.1,0.7-0.2
		c0.3-0.1,0.7-0.1,1-0.2l5-0.7l6.7-0.8c0.2,0,0.4-0.1,0.7-0.1c0.5,0,1-0.1,1.4-0.1c0.3,0,0.5,0,0.8,0h2.6c0.6,0,1.2,0,1.8,0.1
		c0.3,0,0.6,0.1,1,0.1s0.6,0.1,1,0.1l4.1,0.7l3.2,0.6h0.1c1.2,0.2,2.4,0.6,3.5,1.1l0.6,0.2c0,0,0,0,0.1,0c1.7,0.7,3.2,1.5,4.7,2.6
		l0.1,0.1l1.3,1c0.1,0.1,0.2,0.2,0.3,0.2c0.1,0.1,0.3,0.2,0.5,0.3c0,0,0,0,0.1,0.1l2.3,1.6c2.1,1.4,4,3.2,5.5,5.3l2.6,3.7
		c0.1,0.1,0.2,0.2,0.2,0.3l2.3,4.1c1,1.8,1.8,3.7,2.2,5.7c0,0.1,0,0.2,0,0.2l1,4.3l0,0c0.2,1,0.4,1.9,0.5,2.9v0.1l0.5,4.8
		C380.9,331.8,380.9,334.1,380.7,336.5z"/>
</g>
<g>
	<path class="st8" d="M563,279l-0.6-2.1L549,275l-8.3-0.8c-1.1-0.1-2.2-0.5-3.1-1.1l-0.8-0.5c-0.5-0.3-1.1-0.6-1.7-0.8
		c-1.4-0.5-2.9-0.7-4.3-0.7h-5.6c-0.7,0-1.5-0.1-2.2-0.2l-1.7-0.3c-1.5-0.3-3-0.6-4.5-0.8l-1.4-0.2c-2.2-0.3-4.4-0.8-6.5-1.5
		c-1.9-0.6-3.8-1.1-5.8-1.4L500,266c-4.7-0.7-9.4-1-14.1-1h-5.8c-4,0-8.1,0.3-12.1,1l-3.5,0.7c-4.3,0.9-8.6,2-12.7,3.4
		c-1.8,0.6-3.6,1.4-5.3,2.2l-0.6,0.3c-3.2,1.6-6.4,3.4-9.4,5.3c-2.3,1.4-4.4,3-6.5,4.8c-3.3,2.9-6.4,6-9.2,9.4
		c-0.5,0.6-1.1,1.2-1.6,1.8l-1.6,1.6c-1,1-2.2,1.8-3.6,2.2c-0.3,0.1-0.6,0.2-1,0.2s-0.7-0.1-1-0.2c-3.3-1.1-6.8-1.7-10.3-1.7h-3
		c-3.1,0-6.1,0.5-9.1,1.5l-0.3,0.1c-0.9,0.3-1.7,0.6-2.5,0.9L383,300l-2.6,0.7c-0.9,0.2-1.8,0-2.4-0.7c-0.7-0.7-1.4-1.2-2.2-1.7
		L372,296l-11.6-6.2c-1-0.5-1.9-1-3-1.3l-0.6-0.2c-3.9-1.5-7.9-2.2-12.1-2.2h-12.4c-0.9,0-1.7,0-2.6,0.1l-4.5,0.4
		c-1.6,0.1-3.3,0.4-4.9,0.7l-1.9,0.4c-0.9,0.2-1.8,0.5-2.7,0.8L312,290l-10,5l-9,5l-6,4h-1.1c-1.3,0-2.5,0.3-3.6,1l-1,0.6
		c-1.5,0.9-2.5,2.3-2.8,4l-0.1,0.6c-0.2,1.1-0.1,2.3,0.3,3.4l1.3,3.4l1.9,6.6c0.1,0.2,0.1,0.5,0.2,0.7l1.5,9.2
		c0.3,1.6,0.7,3.3,1.2,4.9l2.8,8.4c0.3,0.8,0.6,1.6,0.9,2.3l4.9,10.7c0.4,0.8,0.8,1.6,1.2,2.4l0.7,1.1c1.1,1.8,2.3,3.5,3.7,5.1
		l0.7,0.8c2.2,2.5,4.5,4.8,7.1,6.9l1.2,0.9l1.9,1.4c1.4,1,2.8,2,4.4,2.8l3.1,1.7c2.4,1.3,4.9,2.5,7.5,3.5l4.1,1.5c2,0.7,4.1,1,6.2,1
		h4.1c4.5,0,8.9-0.5,13.2-1.6c1-0.2,2-0.6,2.9-0.9c2.4-1,4.6-2.2,6.6-3.8l2-1.6l2.5-2.2c3-2.5,5.6-5.4,7.9-8.6c1.1-1.5,2-3,2.8-4.7
		l1.8-3.6c0.7-1.3,1.3-2.7,1.8-4c0.8-2,1.4-4,1.9-6l1-4.4c0.2-1,0.5-2,0.7-2.9l0.6-2.1c0.4-1.4,0.8-2.9,1.1-4.4
		c0.6-2.6,0.9-5.2,0.9-7.9V324c0-2.6-0.3-5.3-1.4-7.7c-0.5-1.1-0.6-2.3-0.3-3.4c0.1-0.6,0.4-1.1,0.6-1.6l0.1-0.2l1.5-1.5
		c0.8-0.8,1.7-1.5,2.8-2c0.5-0.3,0.9-0.6,1.3-1c1.1-0.8,2.3-1.4,3.6-1.9c1.3-0.4,2.6-0.6,4-0.6c1.9,0,3.8,0.2,5.6,0.7h0.2
		c0.7,0.2,1.4,0.4,2.1,0.6l2,0.7c1.1,0.6,2.1,1.4,2.7,2.5c0.2,0.3,0.3,0.7,0.3,1v8.2c0,0.9,0.1,1.7,0.2,2.5l0.8,3.8l0.8,2.4
		c0.1,0.4,0.3,0.8,0.5,1.3l2,4.7c0.5,1.1,1,2.2,1.6,3.2l2.1,3.5l3.1,5.3c0.6,1.1,1.3,2.2,2.1,3.2l1.9,2.5l2.8,3.5
		c0.8,1,1.6,1.9,2.5,2.8l4,4c3.1,3.1,6.5,5.8,10.2,8.1l1.2,0.8c0.8,0.5,1.7,1,2.5,1.3l4.2,1.8c0.7,0.3,2,0.8,2.7,1l0.4,0.1
		c3.3,1.1,6.8,1.9,10.3,2.3c1.1,0.1,2.2,0.2,3.4,0.2h0.7c2.7,0,5.5-0.2,8.2-0.5l1.7-0.2c1.5-0.2,3-0.4,4.5-0.7
		c1.9-0.4,3.7-0.9,5.4-1.7l2.4-1c1.3-0.6,2.6-1.2,3.9-1.8c4.4-2.2,8.5-4.9,12.2-8c2.4-2,4.5-4.3,6.6-6.6l0.3-0.3l2.5-3.5
		c1.7-2.3,3.2-4.7,4.6-7.2c1.3-2.3,2.4-4.8,3.2-7.3l1.3-4c0.5-1.6,1.1-3.1,1.8-4.6c0.4-0.9,0.6-1.8,0.9-2.7c0.5-1.8,0.7-3.6,0.7-5.4
		v-12.2c0-4-0.3-8.1-1-12.1v-1.8c0-2.1,0.3-4.2,1-6.2c0.6-0.9,1.5-1.7,2.4-2.2c1-0.5,2-0.8,3.2-0.8h2.3c3.4,0,6.7,0.3,10,1l3.8,0.8
		c0.9,0.2,1.7,0.3,2.6,0.4l9.7,0.9L563,279z M380.7,337.6l-0.1,1.7l-0.4,4.9c-0.1,1.2-0.3,2.3-0.5,3.4c0,0.1,0,0.2-0.1,0.2l-1.2,5.5
		c-0.2,1-0.5,2.1-0.8,3.1c0,0.1-0.1,0.1-0.1,0.2v0.1c-1,2.8-2.3,5.5-4.1,8l0,0l-5.8,8.2c-1,1.4-2.1,2.7-3.4,3.8l-2.6,2.2l0,0
		c-1.6,1.4-3.4,2.6-5.3,3.5l-2.2,1.1c-1.9,1-4,1.6-6.1,1.9l-0.3,0.1c0,0,0,0-0.1,0c-2.3,0.3-4.5,0.4-6.8,0.1l0,0l-5.6-0.6h-0.1
		c-0.6-0.1-1.1-0.1-1.7-0.3l-0.6-0.1h-0.1c-2-0.4-3.9-1-5.8-1.9l0,0c-0.3-0.1-0.5-0.2-0.8-0.4l-9.1-4.5c-2.5-1.2-4.7-3-6.5-5.1
		L307,369l-5.3-6.9c-1.1-1.4-2.1-3-2.9-4.6L296,352l-2-6l-2-7l-0.9-5.3c-0.1-0.5-0.2-0.9-0.2-1.4l-0.8-7.5c-0.1-0.8-0.1-1.7-0.1-2.5
		c0-0.5,0.1-0.9,0.2-1.4l0.4-1.9h5.1c1.5,0,3,0.1,4.5,0.4l3.8,0.6l7,1l8,1h1.9c-0.1-1-0.2-2.1-0.4-3.1l-0.3-2.4L311,315l-5.9-0.7
		c-1.4-0.2-2.8-0.6-4-1.2l0,0c-1.4-0.7-2.9-1-4.4-1H293l2.9-3.8c0.1-0.1,0.2-0.2,0.3-0.3l4.4-4.4c1-1,2-1.8,3.1-2.6l3.6-2.5
		c0.4-0.3,0.8-0.5,1.2-0.7l4.7-2.2c0.6-0.3,1.1-0.5,1.7-0.7l2.1-0.8l3.1-1.2l0,0c0.2-0.1,0.5-0.2,0.7-0.2c0.2-0.1,0.5-0.2,0.7-0.2
		c0.2-0.1,0.5-0.1,0.7-0.2c0.2,0,0.4-0.1,0.6-0.1c0.3-0.1,0.7-0.1,1-0.2l5.1-0.7l6.5-0.8c0.1,0,0.1,0,0.2,0c0.2,0,0.4-0.1,0.7-0.1
		c0.5,0,1-0.1,1.4-0.1c0.3,0,0.5,0,0.8,0h2.6c0.6,0,1.2,0,1.8,0.1c0.3,0,0.6,0.1,1,0.1c0.3,0,0.6,0.1,0.9,0.1h0.1l4.1,0.7l3.2,0.6
		h0.1c1.2,0.2,2.4,0.6,3.5,1.1l0.6,0.2l1.7,0.8c1.1,0.5,2.1,1.2,3.1,1.9c0,0,0,0,0.1,0l1.3,1c0.1,0.1,0.2,0.2,0.3,0.2
		c0.1,0.1,0.3,0.2,0.5,0.3c0,0,0,0,0.1,0.1l2.3,1.6c2.1,1.4,4,3.2,5.5,5.3l2.6,3.7l0.1,0.2l0.1,0.1l2.3,4.1c1,1.8,1.8,3.7,2.2,5.7
		c0,0.1,0,0.2,0,0.2l1,4.3l0,0c0.2,1,0.4,1.9,0.5,2.9v0.1l0.5,4.8C380.8,332.9,380.9,335.2,380.7,337.6
		C380.7,337.5,380.7,337.6,380.7,337.6z M526.1,327.6L526.1,327.6c-0.1,0.3-0.1,0.5-0.2,0.8L524,334l-1.7,4.6
		c-0.8,2.2-1.9,4.4-3.2,6.4l-2.1,3.3c-0.7,1.1-1.4,2.1-2.2,3.1l-2.7,3.2c-0.7,0.9-1.5,1.7-2.3,2.6l-0.9,0.9c-1.9,1.9-4,3.7-6.3,5.2
		l0,0c-1.7,1.1-3.5,2.1-5.4,3l-3.1,1.4c-2.1,0.9-4.2,1.6-6.4,2.2l-2.1,0.5c-1.8,0.4-3.6,0.8-5.4,1l-2.2,0.2c-2.7,0.3-5.5,0.3-8.2,0
		L465,371l-2.3-0.3c-3.8-0.5-7.4-1.7-10.7-3.6l-0.5-0.3c-1-0.6-2-1.2-2.9-1.9l-3.2-2.4c-2.3-1.7-4.3-3.6-6.2-5.8l-1.9-2.2
		c-1.5-1.7-2.9-3.6-4.1-5.6l-1.2-2l-3.4-5.4c-1.1-1.7-2-3.5-2.8-5.4l-0.3-0.8c-1-2.3-1.7-4.6-2.3-7l-0.8-3.6
		c-0.3-1.2-0.5-2.4-0.6-3.6l-0.2-1.7c-0.4-3-0.4-5.9,0-8.9v-0.1c0.3-2.3,0.8-4.5,1.7-6.7l2.9-7.6c1.3-3.4,3.2-6.4,5.8-8.9l0.6-0.6
		c0.4-0.4,0.8-0.7,1.2-1.1l2.4-2c2-1.6,4.2-3,6.5-4.1l5.5-2.4l6.5-2.8c0.3-0.1,0.6-0.3,1-0.4l2.8-0.9c1.8-0.6,3.7-1,5.6-1.3l4.2-0.6
		l6.1-0.8c1.3-0.2,2.6-0.2,3.9-0.2h5.4c1.1,0,2.2,0.1,3.3,0.2l4.9,0.5c1.6,0.2,3.3,0.5,4.8,0.9l3.7,0.9c1.2,0.3,2.5,0.7,3.7,1.1
		l2.5,0.9c2.5,0.9,4.8,2.2,6.8,3.9l1.9,1.5l0.7,0.7c2.2,2.2,4,4.7,5.3,7.4l0.7,1.3c0.2,0.4,0.3,0.7,0.5,1.1l1.7,4.6
		c0.7,1.9,1.3,3.8,1.7,5.7l0.6,2.8c0.5,2.2,0.7,4.4,0.7,6.6v8C527,321.4,526.7,324.5,526.1,327.6z"/>
</g>
</svg>
